<svg width="21" height="21" viewBox="0 0 21 21" fill="none" xmlns="http://www.w3.org/2000/svg">
<path d="M10.2729 20.8575C4.78336 20.8575 0.333496 16.4077 0.333496 10.9182C0.333496 5.42863 4.78336 0.97876 10.2729 0.97876C15.7624 0.97876 20.2123 5.42863 20.2123 10.9182C20.2063 16.4047 15.7594 20.8516 10.2729 20.8575ZM6.02579 13.6883C5.89757 13.6883 5.77034 13.7042 5.64511 13.734L5.49602 13.7747L4.90562 14.7856C4.79777 14.9655 4.76315 15.1799 4.80888 15.3846C4.85462 15.5893 4.97724 15.7686 5.15139 15.8854C5.32555 16.0023 5.53794 16.0478 5.74469 16.0126C5.95144 15.9773 6.13675 15.864 6.26234 15.696L6.32397 15.6036L7.10918 14.2409C6.98192 14.0707 6.817 13.9322 6.62732 13.8364C6.43765 13.7405 6.22837 13.6898 6.01585 13.6883H6.02579ZM11.4766 7.5984C11.1673 7.8889 10.9623 8.27311 10.8931 8.69173C10.7823 9.26894 10.8885 9.86675 11.1913 10.3705L14.2129 15.6046C14.318 15.7815 14.4857 15.9126 14.6828 15.9718C14.8799 16.0311 15.0921 16.0142 15.2774 15.9246C15.4621 15.8335 15.6057 15.676 15.6794 15.4837C15.7531 15.2913 15.7515 15.0782 15.6749 14.887L15.6262 14.7876L14.8311 13.405H16.0139C16.221 13.4033 16.4198 13.323 16.5701 13.1804C16.7203 13.0379 16.8109 12.8436 16.8235 12.6368C16.8361 12.4301 16.7698 12.2262 16.638 12.0664C16.5062 11.9066 16.3187 11.8028 16.1133 11.7759L16.0139 11.77H13.8869L11.7062 7.99299L11.4785 7.59541L11.4766 7.5984ZM4.56768 11.763C4.46087 11.7633 4.35516 11.7846 4.25661 11.8258C4.15806 11.8669 4.0686 11.9271 3.99335 12.003C3.9181 12.0788 3.85855 12.1687 3.8181 12.2675C3.77765 12.3664 3.75709 12.4722 3.75762 12.579C3.75762 12.9905 4.06375 13.3384 4.47226 13.3911L4.57165 13.396H12.0063C12.0886 13.2308 12.13 13.0483 12.1271 12.8637C12.1241 12.6792 12.0769 12.498 11.9894 12.3355C11.915 12.1833 11.8041 12.0518 11.6666 11.9528C11.5291 11.8537 11.3692 11.7903 11.2012 11.768L11.081 11.762H8.54542L12.052 5.69003C12.16 5.50181 12.1893 5.27854 12.1335 5.06882C12.0938 4.92165 12.0139 4.78847 11.9026 4.68429C11.7913 4.5801 11.6532 4.50903 11.5037 4.47907C11.3543 4.44912 11.1994 4.46147 11.0566 4.51474C10.9138 4.568 10.7887 4.66007 10.6953 4.78058L10.6337 4.87202L10.2729 5.50218L9.91606 4.87202C9.81089 4.69484 9.64302 4.56362 9.44569 4.50434C9.24835 4.44507 9.03596 4.46207 8.85056 4.55197C8.6659 4.64346 8.52245 4.80113 8.44878 4.9936C8.37511 5.18607 8.37661 5.39923 8.45299 5.59064L8.50169 5.69003L9.32666 7.14118L6.65793 11.763H4.56768Z" fill="white"/>
</svg>
